0
SECTION
2
HEADER
9
$INSUNITS
70
4
9
$ACADVER
1
AC1014
9
$HANDSEED
5
FFFF
0
ENDSEC
0
SECTION
2
TABLES
0
TABLE
2
VPORT
5
8
100
AcDbSymbolTable
0
ENDTAB
0
TABLE
2
LTYPE
5
5
100
AcDbSymbolTable
0
LTYPE
5
14
100
AcDbSymbolTableRecord
100
AcDbLinetypeTableRecord
2
BYBLOCK
70
0
0
LTYPE
5
15
100
AcDbSymbolTableRecord
100
AcDbLinetypeTableRecord
2
BYLAYER
70
0
0
LTYPE
5
16
100
AcDbSymbolTableRecord
100
AcDbLinetypeTableRecord
2
DASHED
70
0
3
Dashed __ __ __ __ __ __ __ __ __ __ __ __ __ _
72
65
73
2
40
0.75
49
0.5
74
0
49
-0.25
74
0
0
ENDTAB
0
TABLE
2
LAYER
5
2
100
AcDbSymbolTable
70
3
0
LAYER
5
50
100
AcDbSymbolTableRecord
100
AcDbLayerTableRecord
2
1
70
0
62
7
6
DASHED
0
LAYER
5
51
100
AcDbSymbolTableRecord
100
AcDbLayerTableRecord
2
0
70
0
62
7
6
CONTINUOUS
0
ENDTAB
0
TABLE
2
STYLE
5
3
100
AcDbSymbolTable
70
1
0
STYLE
5
11
100
AcDbSymbolTableRecord
100
AcDbTextStyleTableRecord
2
STANDARD
70
0
0
ENDTAB
0
TABLE
2
VIEW
5
6
100
AcDbSymbolTable
70
0
0
ENDTAB
0
TABLE
2
UCS
5
7
100
AcDbSymbolTable
70
0
0
ENDTAB
0
TABLE
2
APPID
5
9
100
AcDbSymbolTable
70
2
0
APPID
5
12
100
AcDbSymbolTableRecord
100
AcDbRegAppTableRecord
2
ACAD
70
0
0
ENDTAB
0
TABLE
2
DIMSTYLE
5
A
100
AcDbSymbolTable
70
1
0
ENDTAB
0
TABLE
2
BLOCK_RECORD
5
1
100
AcDbSymbolTable
70
1
0
BLOCK_RECORD
5
1F
100
AcDbSymbolTableRecord
100
AcDbBlockTableRecord
2
*MODEL_SPACE
0
BLOCK_RECORD
5
1B
100
AcDbSymbolTableRecord
100
AcDbBlockTableRecord
2
*PAPER_SPACE
0
ENDTAB
0
ENDSEC
0
SECTION
2
BLOCKS
0
BLOCK
5
20
100
AcDbEntity
100
AcDbBlockBegin
2
*MODEL_SPACE
0
ENDBLK
5
21
100
AcDbEntity
100
AcDbBlockEnd
0
BLOCK
5
1C
100
AcDbEntity
100
AcDbBlockBegin
2
*PAPER_SPACE
0
ENDBLK
5
1D
100
AcDbEntity
100
AcDbBlockEnd
0
ENDSEC
0
SECTION
2
ENTITIES
0
LWPOLYLINE
5
100
100
AcDbEntity
8
0
100
AcDbPolyline
90
8
70
1
43
0.0
10
-57.149999999999991
20
0.49999999999999822
42
0.41421356237309681
10
-56.649999999999991
20
-2.9143354396410359e-15
10
-0.49999999999999822
20
0
42
0.4142135623730942
10
1.7347234759768071e-15
20
0.49999999999999833
10
0
20
75.700000000000017
42
0.4142135623730942
10
-0.50000000000000011
20
76.200000000000017
10
-56.649999999999999
20
76.200000000000017
42
0.41421356237309503
10
-57.149999999999999
20
75.700000000000003
0
CIRCLE
5
101
100
AcDbEntity
8
0
100
AcDbCircle
10
-19.050000000000001
20
19.050000000000001
30
0
40
1.25
210
0
220
0
230
1
0
CIRCLE
5
102
100
AcDbEntity
8
0
100
AcDbCircle
10
-19.050000000000001
20
57.149999999999999
30
0
40
1.25
210
0
220
0
230
1
0
LWPOLYLINE
5
103
100
AcDbEntity
8
0
100
AcDbPolyline
90
8
70
1
43
0.0
10
-3.0249999999999999
20
40.625
42
0.41421356237309437
10
-2.525000000000003
20
41.125
10
-2.5249999999999999
20
54.125000000000007
42
0.41421356237309404
10
-3.0249999999999999
20
54.625
10
-16.024999999999999
20
54.625
42
0.41421356237309503
10
-16.524999999999999
20
54.125000000000007
10
-16.524999999999999
20
41.125
42
0.41421356237309503
10
-16.024999999999999
20
40.625
0
LWPOLYLINE
5
104
100
AcDbEntity
8
0
100
AcDbPolyline
90
8
70
1
43
0.0
10
-22.074999999999999
20
40.625
42
0.41421356237309503
10
-21.575000000000003
20
41.125
10
-21.575000000000003
20
54.125000000000007
42
0.41421356237309503
10
-22.074999999999999
20
54.625
10
-35.075000000000003
20
54.625
42
0.41421356237309503
10
-35.575000000000003
20
54.125000000000007
10
-35.575000000000003
20
41.125
42
0.41421356237308721
10
-35.075000000000003
20
40.625
0
LWPOLYLINE
5
105
100
AcDbEntity
8
0
100
AcDbPolyline
90
8
70
1
43
0.0
10
-41.125
20
21.575000000000003
42
0.41421356237309503
10
-40.625
20
22.074999999999999
10
-40.625
20
35.075000000000003
42
0.41421356237309503
10
-41.125
20
35.575000000000003
10
-54.125000000000007
20
35.575000000000003
42
0.41421356237308721
10
-54.625
20
35.075000000000003
10
-54.625
20
22.074999999999999
42
0.41421356237309503
10
-54.125000000000007
20
21.575000000000003
0
LWPOLYLINE
5
106
100
AcDbEntity
8
0
100
AcDbPolyline
90
8
70
1
43
0.0
10
-3.0249999999999999
20
2.5249999999999999
42
0.41421356237309437
10
-2.5249999999999999
20
3.0249999999999999
10
-2.5249999999999999
20
16.024999999999999
42
0.4142135623730947
10
-3.0249999999999999
20
16.524999999999999
10
-16.024999999999999
20
16.524999999999999
42
0.41421356237309764
10
-16.524999999999999
20
16.024999999999999
10
-16.524999999999999
20
3.0249999999999999
42
0.4142135623730957
10
-16.024999999999999
20
2.5250000000000039
0
LWPOLYLINE
5
107
100
AcDbEntity
8
0
100
AcDbPolyline
90
8
70
1
43
0.0
10
-41.125
20
2.5249999999999999
42
0.41421356237309404
10
-40.625
20
3.0249999999999999
10
-40.625
20
16.024999999999999
42
0.41421356237309503
10
-41.125
20
16.524999999999999
10
-54.125000000000007
20
16.524999999999999
42
0.41421356237309503
10
-54.625
20
16.024999999999999
10
-54.625
20
3.0249999999999999
42
0.41421356237309437
10
-54.125000000000007
20
2.5250000000000039
0
LWPOLYLINE
5
108
100
AcDbEntity
8
0
100
AcDbPolyline
90
8
70
1
43
0.0
10
-22.074999999999999
20
2.5249999999999999
42
0.41421356237309537
10
-21.575000000000003
20
3.0249999999999999
10
-21.575000000000003
20
16.024999999999999
42
0.41421356237309631
10
-22.074999999999999
20
16.524999999999999
10
-35.075000000000003
20
16.524999999999999
42
0.41421356237309631
10
-35.575000000000003
20
16.024999999999999
10
-35.575000000000003
20
3.0249999999999999
42
0.41421356237309631
10
-35.075000000000003
20
2.524999999999995
0
LWPOLYLINE
5
109
100
AcDbEntity
8
0
100
AcDbPolyline
90
8
70
1
43
0.0
10
-22.074999999999999
20
21.575000000000003
42
0.41421356237309503
10
-21.575000000000003
20
22.074999999999999
10
-21.575000000000003
20
35.075000000000003
42
0.41421356237309503
10
-22.074999999999999
20
35.575000000000003
10
-35.075000000000003
20
35.575000000000003
42
0.41421356237310025
10
-35.57500000000001
20
35.075000000000003
10
-35.575000000000003
20
22.074999999999999
42
0.41421356237310281
10
-35.075000000000003
20
21.574999999999996
0
LWPOLYLINE
5
110
100
AcDbEntity
8
0
100
AcDbPolyline
90
8
70
1
43
0.0
10
-3.0249999999999999
20
21.575000000000003
42
0.4142135623730957
10
-2.5250000000000004
20
22.074999999999999
10
-2.5249999999999999
20
35.075000000000003
42
0.41421356237309537
10
-3.0249999999999999
20
35.575000000000003
10
-16.024999999999999
20
35.575000000000003
42
0.41421356237309503
10
-16.525000000000002
20
35.075000000000003
10
-16.524999999999999
20
22.074999999999999
42
0.41421356237309631
10
-16.024999999999999
20
21.575000000000003
0
LWPOLYLINE
5
111
100
AcDbEntity
8
0
100
AcDbPolyline
90
8
70
1
43
0.0
10
-41.125
20
40.625
42
0.41421356237309503
10
-40.625
20
41.125
10
-40.625
20
54.125000000000007
42
0.41421356237309503
10
-41.125
20
54.625
10
-54.125000000000007
20
54.625
42
0.41421356237309503
10
-54.625
20
54.125000000000007
10
-54.625
20
41.125
42
0.41421356237309503
10
-54.125000000000007
20
40.625
0
LWPOLYLINE
5
112
100
AcDbEntity
8
0
100
AcDbPolyline
90
8
70
1
43
0.0
10
-3.0249999999999999
20
59.675000000000004
42
0.41421356237309698
10
-2.5249999999999986
20
60.174999999999997
10
-2.5249999999999999
20
73.174999999999997
42
0.41421356237309404
10
-3.0249999999999999
20
73.674999999999997
10
-16.024999999999999
20
73.674999999999997
42
0.41421356237309503
10
-16.524999999999999
20
73.174999999999997
10
-16.524999999999999
20
60.174999999999997
42
0.41421356237309764
10
-16.024999999999999
20
59.675000000000004
0
LWPOLYLINE
5
113
100
AcDbEntity
8
0
100
AcDbPolyline
90
8
70
1
43
0.0
10
-22.074999999999999
20
59.675000000000004
42
0.41421356237309764
10
-21.574999999999996
20
60.174999999999997
10
-21.575000000000003
20
73.174999999999997
42
0.41421356237309503
10
-22.074999999999999
20
73.674999999999997
10
-35.075000000000003
20
73.674999999999997
42
0.41421356237309503
10
-35.575000000000003
20
73.174999999999997
10
-35.575000000000003
20
60.174999999999997
42
0.41421356237308204
10
-35.075000000000003
20
59.674999999999997
0
LWPOLYLINE
5
114
100
AcDbEntity
8
0
100
AcDbPolyline
90
8
70
1
43
0.0
10
-41.125
20
59.675000000000004
42
0.41421356237309503
10
-40.625
20
60.174999999999997
10
-40.625
20
73.174999999999997
42
0.41421356237309503
10
-41.125
20
73.674999999999997
10
-54.125000000000007
20
73.674999999999997
42
0.41421356237309503
10
-54.625
20
73.174999999999997
10
-54.625
20
60.174999999999997
42
0.41421356237309503
10
-54.125000000000007
20
59.675000000000004
0
ENDSEC
0
SECTION
2
OBJECTS
0
DICTIONARY
5
C
100
AcDbDictionary
3
ACAD_GROUP
350
D
3
ACAD_MLINESTYLE
350
17
0
DICTIONARY
5
D
100
AcDbDictionary
0
DICTIONARY
5
1A
330
C
100
AcDbDictionary
0
DICTIONARY
5
17
100
AcDbDictionary
0
ENDSEC
0
EOF
