0
SECTION
2
HEADER
9
$INSUNITS
70
4
9
$ACADVER
1
AC1014
9
$HANDSEED
5
FFFF
0
ENDSEC
0
SECTION
2
TABLES
0
TABLE
2
VPORT
5
8
100
AcDbSymbolTable
0
ENDTAB
0
TABLE
2
LTYPE
5
5
100
AcDbSymbolTable
0
LTYPE
5
14
100
AcDbSymbolTableRecord
100
AcDbLinetypeTableRecord
2
BYBLOCK
70
0
0
LTYPE
5
15
100
AcDbSymbolTableRecord
100
AcDbLinetypeTableRecord
2
BYLAYER
70
0
0
LTYPE
5
16
100
AcDbSymbolTableRecord
100
AcDbLinetypeTableRecord
2
DASHED
70
0
3
Dashed __ __ __ __ __ __ __ __ __ __ __ __ __ _
72
65
73
2
40
0.75
49
0.5
74
0
49
-0.25
74
0
0
ENDTAB
0
TABLE
2
LAYER
5
2
100
AcDbSymbolTable
70
3
0
LAYER
5
50
100
AcDbSymbolTableRecord
100
AcDbLayerTableRecord
2
1
70
0
62
7
6
DASHED
0
LAYER
5
51
100
AcDbSymbolTableRecord
100
AcDbLayerTableRecord
2
0
70
0
62
7
6
CONTINUOUS
0
ENDTAB
0
TABLE
2
STYLE
5
3
100
AcDbSymbolTable
70
1
0
STYLE
5
11
100
AcDbSymbolTableRecord
100
AcDbTextStyleTableRecord
2
STANDARD
70
0
0
ENDTAB
0
TABLE
2
VIEW
5
6
100
AcDbSymbolTable
70
0
0
ENDTAB
0
TABLE
2
UCS
5
7
100
AcDbSymbolTable
70
0
0
ENDTAB
0
TABLE
2
APPID
5
9
100
AcDbSymbolTable
70
2
0
APPID
5
12
100
AcDbSymbolTableRecord
100
AcDbRegAppTableRecord
2
ACAD
70
0
0
ENDTAB
0
TABLE
2
DIMSTYLE
5
A
100
AcDbSymbolTable
70
1
0
ENDTAB
0
TABLE
2
BLOCK_RECORD
5
1
100
AcDbSymbolTable
70
1
0
BLOCK_RECORD
5
1F
100
AcDbSymbolTableRecord
100
AcDbBlockTableRecord
2
*MODEL_SPACE
0
BLOCK_RECORD
5
1B
100
AcDbSymbolTableRecord
100
AcDbBlockTableRecord
2
*PAPER_SPACE
0
ENDTAB
0
ENDSEC
0
SECTION
2
BLOCKS
0
BLOCK
5
20
100
AcDbEntity
100
AcDbBlockBegin
2
*MODEL_SPACE
0
ENDBLK
5
21
100
AcDbEntity
100
AcDbBlockEnd
0
BLOCK
5
1C
100
AcDbEntity
100
AcDbBlockBegin
2
*PAPER_SPACE
0
ENDBLK
5
1D
100
AcDbEntity
100
AcDbBlockEnd
0
ENDSEC
0
SECTION
2
ENTITIES
0
CIRCLE
5
100
100
AcDbEntity
8
0
100
AcDbCircle
10
-47.625
20
9.5250000000000021
30
0
40
1.2000000000000011
210
0
220
0
230
1
0
CIRCLE
5
101
100
AcDbEntity
8
0
100
AcDbCircle
10
-85.724999999999994
20
-8.6999999999999993
30
0
40
1.1999999999999922
210
0
220
0
230
1
0
CIRCLE
5
102
100
AcDbEntity
8
0
100
AcDbCircle
10
-9.5250000000000021
20
-2.3812500000000005
30
0
40
1.2
210
0
220
0
230
1
0
CIRCLE
5
103
100
AcDbEntity
8
0
100
AcDbCircle
10
-66.675000000000011
20
9.5250000000000021
30
0
40
1.2000000000000011
210
0
220
0
230
1
0
CIRCLE
5
104
100
AcDbEntity
8
0
100
AcDbCircle
10
-100.0125
20
38.893749999999997
30
0
40
1.1999999999999922
210
0
220
0
230
1
0
CIRCLE
5
105
100
AcDbEntity
8
0
100
AcDbCircle
10
-9.5250000000000021
20
16.668750000000003
30
0
40
1.2
210
0
220
0
230
1
0
LWPOLYLINE
5
106
100
AcDbEntity
8
0
100
AcDbPolyline
90
8
70
1
43
0.0
10
6.4999999999999991
20
-7.0000000000000009
10
-6.4999999999999991
20
-7
42
-0.41421356237309437
10
-6.9999999999999973
20
-6.5000000000000027
10
-7.0000000000000018
20
6.5
42
-0.4142135623730937
10
-6.4999999999999991
20
7.0000000000000027
10
6.5000000000000018
20
7
42
-0.4142135623730937
10
7.0000000000000009
20
6.5
10
7
20
-6.5
42
-0.41421356237309503
0
LWPOLYLINE
5
107
100
AcDbEntity
8
0
100
AcDbPolyline
90
12
70
1
43
0.0
10
-107.80000000000001
20
7.2874999999999943
42
0.41421356237309503
10
-107.30000000000001
20
7.7874999999999961
10
-107.30000000000001
20
20.787499999999998
42
0.41421356237309503
10
-107.80000000000001
20
21.287500000000005
10
-108.25000000000001
20
21.287499999999998
10
-108.25000000000001
20
22.237499999999997
10
-120.34999999999998
20
22.237499999999997
10
-120.34999999999998
20
21.287499999999998
10
-120.79999999999998
20
21.287499999999998
42
0.41421356237310802
10
-121.29999999999998
20
20.787499999999998
10
-121.29999999999998
20
7.787499999999997
42
0.41421356237309437
10
-120.79999999999998
20
7.2874999999999899
0
LWPOLYLINE
5
108
100
AcDbEntity
8
0
100
AcDbPolyline
90
8
70
1
43
0.0
10
-88.75
20
-21.287500000000001
42
0.41421356237310542
10
-88.25
20
-20.787500000000001
10
-88.250000000000014
20
-7.7874999999999908
42
0.41421356237311519
10
-88.75
20
-7.2875000000000014
10
-101.75
20
-7.2875000000000014
42
0.41421356237310542
10
-102.25000000000001
20
-7.7875000000000005
10
-102.25000000000001
20
-20.787499999999994
42
0.41421356237309243
10
-101.75
20
-21.287500000000001
0
LWPOLYLINE
5
109
100
AcDbEntity
8
0
100
AcDbPolyline
90
8
70
1
43
0.0
10
-69.699999999999989
20
-23.668750000000003
42
0.41421356237309764
10
-69.200000000000003
20
-23.168750000000003
10
-69.199999999999989
20
-10.168750000000003
42
0.41421356237309764
10
-69.699999999999989
20
-9.6687500000000028
10
-82.699999999999989
20
-9.6687500000000028
42
0.41421356237310675
10
-83.200000000000003
20
-10.168750000000003
10
-83.199999999999989
20
-23.168750000000014
42
0.41421356237311324
10
-82.699999999999989
20
-23.668750000000003
0
LWPOLYLINE
5
110
100
AcDbEntity
8
0
100
AcDbPolyline
90
8
70
1
43
0.0
10
-50.649999999999991
20
12.049999999999997
42
0.41421356237309764
10
-50.150000000000006
20
12.549999999999994
10
-50.149999999999999
20
25.550000000000001
42
0.41421356237309764
10
-50.649999999999991
20
26.050000000000001
10
-63.649999999999991
20
26.050000000000001
42
0.41421356237309503
10
-64.149999999999991
20
25.550000000000001
10
-64.149999999999991
20
12.549999999999994
42
0.41421356237309503
10
-63.649999999999991
20
12.049999999999997
0
LWPOLYLINE
5
111
100
AcDbEntity
8
0
100
AcDbPolyline
90
8
70
1
43
0.0
10
-69.699999999999989
20
14.431249999999999
42
0.41421356237309764
10
-69.200000000000003
20
14.931249999999995
10
-69.199999999999989
20
27.931250000000002
42
0.41421356237309764
10
-69.699999999999989
20
28.431250000000002
10
-82.699999999999989
20
28.431250000000002
42
0.41421356237310802
10
-83.200000000000003
20
27.931250000000002
10
-83.199999999999989
20
14.931249999999995
42
0.41421356237311452
10
-82.699999999999989
20
14.431250000000006
0
LWPOLYLINE
5
112
100
AcDbEntity
8
0
100
AcDbPolyline
90
8
70
1
43
0.0
10
-69.699999999999989
20
-4.6187499999999995
42
0.41421356237309698
10
-69.199999999999989
20
-4.1187500000000012
10
-69.199999999999989
20
8.8812499999999979
42
0.4142135623730957
10
-69.699999999999989
20
9.3812499999999961
10
-82.699999999999989
20
9.3812499999999961
42
0.4142135623731048
10
-83.200000000000003
20
8.8812499999999979
10
-83.199999999999989
20
-4.1187500000000012
42
0.41421356237311519
10
-82.699999999999989
20
-4.6187499999999906
0
LWPOLYLINE
5
113
100
AcDbEntity
8
0
100
AcDbPolyline
90
8
70
1
43
0.0
10
-12.549999999999999
20
-18.906250000000004
42
0.41421356237308982
10
-12.049999999999997
20
-18.40625
10
-12.050000000000001
20
-5.4062500000000027
42
0.41421356237309437
10
-12.549999999999999
20
-4.9062500000000044
10
-25.550000000000001
20
-4.9062500000000044
42
0.41421356237309503
10
-26.050000000000001
20
-5.4062500000000036
10
-26.050000000000004
20
-18.40625
42
0.41421356237309892
10
-25.550000000000001
20
-18.906250000000004
0
LWPOLYLINE
5
114
100
AcDbEntity
8
0
100
AcDbPolyline
90
8
70
1
43
0.0
10
-88.75
20
16.8125
42
0.41421356237310414
10
-88.249999999999972
20
17.312499999999996
10
-88.250000000000014
20
30.312500000000004
42
0.41421356237311324
10
-88.75
20
30.812499999999993
10
-101.75
20
30.812500000000004
42
0.41421356237310802
10
-102.25000000000001
20
30.312500000000004
10
-102.25000000000001
20
17.312499999999996
42
0.41421356237309631
10
-101.75
20
16.812499999999989
0
LWPOLYLINE
5
115
100
AcDbEntity
8
0
100
AcDbPolyline
90
8
70
1
43
0.0
10
-88.75
20
-2.2375000000000025
42
0.41421356237310564
10
-88.25
20
-1.7375000000000052
10
-88.250000000000014
20
11.262499999999998
42
0.41421356237311452
10
-88.75
20
11.762499999999987
10
-101.75
20
11.762499999999999
42
0.41421356237309503
10
-102.25000000000001
20
11.262499999999998
10
-102.25000000000001
20
-1.737500000000004
42
0.41421356237309437
10
-101.75
20
-2.2375000000000114
0
LWPOLYLINE
5
116
100
AcDbEntity
8
0
100
AcDbPolyline
90
8
70
1
43
0.0
10
-31.599999999999998
20
-4.6187499999999995
42
0.4142135623730957
10
-31.099999999999998
20
-4.1187500000000012
10
-31.099999999999998
20
8.8812499999999979
42
0.41421356237309437
10
-31.599999999999998
20
9.3812499999999961
10
-44.600000000000009
20
9.3812499999999961
42
0.41421356237308005
10
-45.099999999999994
20
8.8812499999999979
10
-45.099999999999994
20
-4.1187500000000012
42
0.4142135623730791
10
-44.600000000000009
20
-4.6187499999999995
0
LWPOLYLINE
5
117
100
AcDbEntity
8
0
100
AcDbPolyline
90
8
70
1
43
0.0
10
-50.649999999999991
20
-26.050000000000004
42
0.41421356237309764
10
-50.150000000000006
20
-25.550000000000004
10
-50.149999999999999
20
-12.550000000000004
42
0.41421356237309764
10
-50.649999999999991
20
-12.050000000000004
10
-63.649999999999991
20
-12.050000000000004
42
0.41421356237309503
10
-64.149999999999991
20
-12.550000000000004
10
-64.149999999999991
20
-25.550000000000004
42
0.41421356237309503
10
-63.649999999999991
20
-26.050000000000004
0
LWPOLYLINE
5
118
100
AcDbEntity
8
0
100
AcDbPolyline
90
8
70
1
43
0.0
10
-59.675000000000004
20
49.362500000000004
42
0.41421356237309503
10
-60.174999999999997
20
49.862499999999997
10
-73.175000000000011
20
49.86249999999999
42
0.4142135623730846
10
-73.674999999999997
20
49.362500000000004
10
-73.674999999999997
20
36.362499999999997
42
0.41421356237308204
10
-73.175000000000011
20
35.862500000000011
10
-60.174999999999997
20
35.862500000000004
42
0.41421356237309764
10
-59.675000000000004
20
36.362499999999997
0
LWPOLYLINE
5
119
100
AcDbEntity
8
0
100
AcDbPolyline
90
8
70
1
43
0.0
10
-12.549999999999999
20
0.14374999999999921
42
0.41421356237309559
10
-12.050000000000001
20
0.64374999999999849
10
-12.050000000000001
20
13.643749999999994
42
0.41421356237309764
10
-12.549999999999999
20
14.143749999999994
10
-25.550000000000001
20
14.143750000000001
42
0.41421356237309503
10
-26.050000000000008
20
13.643749999999994
10
-26.050000000000004
20
0.64374999999999738
42
0.41421356237310025
10
-25.550000000000001
20
0.14374999999999472
0
LWPOLYLINE
5
120
100
AcDbEntity
8
0
100
AcDbPolyline
90
8
70
1
43
0.0
10
-31.599999999999998
20
14.431249999999999
42
0.41421356237309631
10
-31.100000000000001
20
14.931249999999995
10
-31.099999999999998
20
27.931250000000002
42
0.41421356237309503
10
-31.599999999999998
20
28.431250000000002
10
-44.600000000000009
20
28.431250000000002
42
0.41421356237307161
10
-45.099999999999994
20
27.931250000000002
10
-45.099999999999994
20
14.931249999999995
42
0.41421356237307944
10
-44.600000000000009
20
14.431249999999999
0
LWPOLYLINE
5
121
100
AcDbEntity
8
0
100
AcDbPolyline
90
8
70
1
43
0.0
10
-83.36930559999999
20
37.372710399999988
42
0.41421356237309759
10
-82.756933199999992
20
37.726263799999984
10
-79.39228559999998
20
50.283299599999999
42
0.41421356237310647
10
-79.745838999999989
20
50.89567199999999
10
-92.302874800000012
20
54.260319599999995
42
0.41421356237305346
10
-92.91524720000001
20
53.9067662
10
-96.27989479999998
20
41.349730399999991
42
0.41421356237309875
10
-95.926341399999998
20
40.737358000000022
0
LWPOLYLINE
5
122
100
AcDbEntity
8
0
100
AcDbPolyline
90
8
70
1
43
0.0
10
-50.649999999999991
20
-7.0000000000000009
42
0.4142135623730957
10
-50.149999999999999
20
-6.5000000000000027
10
-50.149999999999999
20
6.5
42
0.4142135623730957
10
-50.649999999999991
20
6.9999999999999982
10
-63.649999999999991
20
7.0000000000000027
42
0.41421356237308915
10
-64.149999999999991
20
6.5
10
-64.149999999999991
20
-6.5000000000000027
42
0.4142135623730937
10
-63.649999999999991
20
-7.0000000000000009
0
LWPOLYLINE
5
123
100
AcDbEntity
8
0
100
AcDbPolyline
90
8
70
1
43
0.0
10
-31.599999999999998
20
-23.668750000000003
42
0.41421356237309503
10
-31.099999999999998
20
-23.168750000000003
10
-31.099999999999998
20
-10.168750000000003
42
0.41421356237309631
10
-31.599999999999998
20
-9.6687500000000028
10
-44.600000000000009
20
-9.6687500000000028
42
0.41421356237307944
10
-45.099999999999994
20
-10.168750000000003
10
-45.099999999999994
20
-23.168750000000003
42
0.41421356237307944
10
-44.600000000000009
20
-23.668750000000003
0
LWPOLYLINE
5
124
100
AcDbEntity
8
0
100
AcDbPolyline
90
8
70
1
43
0.0
10
6.5000000000000018
20
12.049999999999997
42
0.41421356237309764
10
7
20
12.549999999999994
10
7.0000000000000009
20
25.550000000000001
42
0.4142135623730957
10
6.5000000000000018
20
26.050000000000001
10
-6.4999999999999991
20
26.050000000000001
42
0.41421356237309631
10
-6.9999999999999973
20
25.550000000000001
10
-6.9999999999999973
20
12.549999999999994
42
0.41421356237309764
10
-6.4999999999999991
20
12.049999999999997
0
LWPOLYLINE
5
125
100
AcDbEntity
8
0
100
AcDbPolyline
90
8
70
1
43
0.0
10
-107.80000000000001
20
-11.762499999999999
42
0.41421356237310414
10
-107.29999999999998
20
-11.262500000000003
10
-107.30000000000001
20
1.7374999999999974
42
0.41421356237309437
10
-107.80000000000001
20
2.2375000000000043
10
-120.79999999999998
20
2.2374999999999998
42
0.41421356237309553
10
-121.29999999999998
20
1.7374999999999963
10
-121.29999999999998
20
-11.262500000000003
42
0.41421356237309631
10
-120.79999999999998
20
-11.76250000000001
0
LWPOLYLINE
5
126
100
AcDbEntity
8
0
100
AcDbPolyline
90
8
70
1
43
0.0
10
-12.549999999999999
20
19.193749999999991
42
0.41421356237310025
10
-12.049999999999992
20
19.693749999999998
10
-12.050000000000001
20
32.693749999999994
42
0.41421356237309631
10
-12.549999999999999
20
33.193749999999994
10
-25.550000000000001
20
33.193749999999994
42
0.41421356237309503
10
-26.050000000000001
20
32.693749999999994
10
-26.050000000000004
20
19.693749999999998
42
0.41421356237309892
10
-25.550000000000001
20
19.193749999999994
0
LWPOLYLINE
5
127
100
AcDbEntity
8
0
100
AcDbPolyline
90
50
70
1
43
0.0
10
-123.52138213956458
20
41.880130024049436
42
0.11393560817318137
10
-123.825
20
40.565016585049911
10
-123.825
20
-13.287499999999994
42
0.41421356237308854
10
-122.825
20
-14.287500000000005
10
-105.27500000000002
20
-14.287499999999993
42
-0.41421356237309503
10
-104.77500000000001
20
-14.7875
10
-104.77500000000001
20
-22.8125
42
0.41421356237309631
10
-103.77500000000001
20
-23.8125
10
-86.224999999999994
20
-23.812499999999993
42
-0.41421356237309503
10
-85.72499999999998
20
-24.3125
10
-85.72499999999998
20
-25.193750000000001
42
0.4142135623730937
10
-84.72499999999998
20
-26.193749999999994
10
-67.174999999999983
20
-26.193750000000001
42
-0.41421356237309503
10
-66.674999999999983
20
-26.693750000000001
10
-66.674999999999983
20
-27.575000000000006
42
0.4142135623730937
10
-65.674999999999983
20
-28.574999999999999
10
-48.624999999999986
20
-28.575000000000003
42
0.41421356237309503
10
-47.624999999999993
20
-27.575000000000003
10
-47.624999999999993
20
-26.693750000000001
42
-0.41421356237309503
10
-47.124999999999993
20
-26.193750000000001
10
-29.591086741398385
20
-26.193750000000001
42
0.41421356237309243
10
-28.591086741398385
20
-25.193750000000001
10
-28.591086741398392
20
-21.931250000000002
42
-0.41421356237309503
10
-28.091086741398392
20
-21.431250000000006
10
-10.525000000000002
20
-21.431250000000006
42
0.4142135623730937
10
-9.5250000000000057
20
-20.431250000000002
10
-9.5250000000000021
20
-10.025000000000002
42
-0.41421356237309503
10
-9.0250000000000004
20
-9.5250000000000021
10
8.5250000000000004
20
-9.5250000000000021
42
0.41421356237309437
10
9.5250000000000004
20
-8.5250000000000004
10
9.5250000000000021
20
27.575000000000003
42
0.4142135623730947
10
8.5250000000000004
20
28.575000000000003
10
-9.0250000000000004
20
28.574999999999999
42
-0.41421356237309503
10
-9.5250000000000021
20
29.074999999999996
10
-9.5250000000000021
20
34.71875
42
0.41421356237309437
10
-10.525000000000002
20
35.71875
10
-27.575000000000003
20
35.718749999999993
42
0.41421356237309115
10
-28.574999999999999
20
34.718749999999993
10
-28.574999999999999
20
31.432462296190163
42
-0.41456004003432795
10
-29.075591401764129
20
30.93246264594633
10
-46.292201724894468
20
30.952826527625909
42
-0.28548137665432416
10
-46.740239507967509
20
31.232073251473871
10
-56.875186810091414
20
51.829005852791745
42
0.28580120412765964
10
-57.772445179765739
20
52.387499999999996
10
-75.162608552055232
20
52.387499999999989
42
-0.065543462779072026
10
-75.939065686945384
20
52.489722521020937
10
-93.751155853698677
20
57.26245769396283
42
-0.048033444394179725
10
-94.289812157808058
20
57.463853033377305
10
-110.86510821295279
20
65.548165074190834
42
0.41421356237309154
10
-112.20227340580752
20
65.087742174002486
0
ENDSEC
0
SECTION
2
OBJECTS
0
DICTIONARY
5
C
100
AcDbDictionary
3
ACAD_GROUP
350
D
3
ACAD_MLINESTYLE
350
17
0
DICTIONARY
5
D
100
AcDbDictionary
0
DICTIONARY
5
1A
330
C
100
AcDbDictionary
0
DICTIONARY
5
17
100
AcDbDictionary
0
ENDSEC
0
EOF
