0
SECTION
2
HEADER
9
$INSUNITS
70
4
9
$ACADVER
1
AC1014
9
$HANDSEED
5
FFFF
0
ENDSEC
0
SECTION
2
TABLES
0
TABLE
2
VPORT
5
8
100
AcDbSymbolTable
0
ENDTAB
0
TABLE
2
LTYPE
5
5
100
AcDbSymbolTable
0
LTYPE
5
14
100
AcDbSymbolTableRecord
100
AcDbLinetypeTableRecord
2
BYBLOCK
70
0
0
LTYPE
5
15
100
AcDbSymbolTableRecord
100
AcDbLinetypeTableRecord
2
BYLAYER
70
0
0
ENDTAB
0
TABLE
2
LAYER
5
2
100
AcDbSymbolTable
70
2
0
LAYER
5
50
100
AcDbSymbolTableRecord
100
AcDbLayerTableRecord
2
0
70
0
6
CONTINUOUS
0
ENDTAB
0
TABLE
2
STYLE
5
3
100
AcDbSymbolTable
70
1
0
STYLE
5
11
100
AcDbSymbolTableRecord
100
AcDbTextStyleTableRecord
2
STANDARD
70
0
0
ENDTAB
0
TABLE
2
VIEW
5
6
100
AcDbSymbolTable
70
0
0
ENDTAB
0
TABLE
2
UCS
5
7
100
AcDbSymbolTable
70
0
0
ENDTAB
0
TABLE
2
APPID
5
9
100
AcDbSymbolTable
70
2
0
APPID
5
12
100
AcDbSymbolTableRecord
100
AcDbRegAppTableRecord
2
ACAD
70
0
0
ENDTAB
0
TABLE
2
DIMSTYLE
5
A
100
AcDbSymbolTable
70
1
0
ENDTAB
0
TABLE
2
BLOCK_RECORD
5
1
100
AcDbSymbolTable
70
1
0
BLOCK_RECORD
5
1F
100
AcDbSymbolTableRecord
100
AcDbBlockTableRecord
2
*MODEL_SPACE
0
BLOCK_RECORD
5
1B
100
AcDbSymbolTableRecord
100
AcDbBlockTableRecord
2
*PAPER_SPACE
0
ENDTAB
0
ENDSEC
0
SECTION
2
BLOCKS
0
BLOCK
5
20
100
AcDbEntity
100
AcDbBlockBegin
2
*MODEL_SPACE
0
ENDBLK
5
21
100
AcDbEntity
100
AcDbBlockEnd
0
BLOCK
5
1C
100
AcDbEntity
100
AcDbBlockBegin
2
*PAPER_SPACE
0
ENDBLK
5
1D
100
AcDbEntity
100
AcDbBlockEnd
0
ENDSEC
0
SECTION
2
ENTITIES
0
CIRCLE
5
100
100
AcDbEntity
8
0
100
AcDbCircle
10
-19.724999999999994
20
99.218750000000014
30
0
40
1.2
210
0
220
-0
230
1
0
CIRCLE
5
101
100
AcDbEntity
8
0
100
AcDbCircle
10
-38.099999999999994
20
23.8125
30
0
40
1.2
210
0
220
-0
230
1
0
CIRCLE
5
102
100
AcDbEntity
8
0
100
AcDbCircle
10
-56.356249999999974
20
99.218750000000014
30
0
40
1.2
210
0
220
-0
230
1
0
LWPOLYLINE
5
103
100
AcDbEntity
8
0
100
AcDbPolyline
90
8
70
1
43
0.0
10
-41.125
20
64.4375
42
0.41421356237309503
10
-40.625
20
64.9375
10
-40.625
20
77.9375
42
0.41421356237309503
10
-41.125
20
78.4375
10
-54.125000000000007
20
78.4375
42
0.41421356237309503
10
-54.625
20
77.9375
10
-54.625
20
64.9375
42
0.41421356237309503
10
-54.125000000000007
20
64.4375
0
LWPOLYLINE
5
104
100
AcDbEntity
8
0
100
AcDbPolyline
90
8
70
1
43
0.0
10
-22.074999999999999
20
26.337499999999999
42
0.41421356237309503
10
-21.575000000000003
20
26.837499999999999
10
-21.575000000000003
20
39.837499999999999
42
0.41421356237311324
10
-22.074999999999999
20
40.337499999999991
10
-35.075000000000003
20
40.337500000000006
42
0.41421356237310542
10
-35.575000000000003
20
39.837499999999999
10
-35.575000000000003
20
26.837499999999999
42
0.41421356237310025
10
-35.075000000000003
20
26.337499999999995
0
LWPOLYLINE
5
105
100
AcDbEntity
8
0
100
AcDbPolyline
90
8
70
1
43
0.0
10
-72.674999999999997
20
85.0745
42
0.41421356237310025
10
-72.174999999999997
20
84.574500000000015
10
-58.174999999999997
20
84.5745
42
0.41421356237307422
10
-57.67499999999999
20
85.0745
10
-57.674999999999997
20
91.0745
42
0.41421356237308982
10
-58.174999999999997
20
91.5745
10
-72.174999999999997
20
91.5745
42
0.41421356237309503
10
-72.675000000000011
20
91.0745
0
LWPOLYLINE
5
106
100
AcDbEntity
8
0
100
AcDbPolyline
90
8
70
1
43
0.0
10
-73.674999999999997
20
93.512500000000003
42
0.41421356237308982
10
-73.174999999999997
20
93.012499999999989
10
-60.174999999999997
20
93.012500000000017
42
0.41421356237311063
10
-59.675000000000011
20
93.512500000000003
10
-59.675000000000004
20
106.51250000000002
42
0.41421356237310542
10
-60.174999999999997
20
107.01250000000002
10
-73.174999999999997
20
107.01250000000002
42
0.41421356237309503
10
-73.675000000000011
20
106.51250000000002
0
LWPOLYLINE
5
107
100
AcDbEntity
8
0
100
AcDbPolyline
90
8
70
1
43
0.0
10
-72.674999999999997
20
70.850499999999997
42
0.41421356237309503
10
-72.174999999999997
20
70.350499999999997
10
-58.174999999999997
20
70.350499999999997
42
0.41421356237309503
10
-57.674999999999997
20
70.850499999999997
10
-57.674999999999997
20
76.850500000000011
42
0.41421356237309503
10
-58.174999999999997
20
77.350499999999997
10
-72.174999999999997
20
77.350499999999997
42
0.41421356237309503
10
-72.674999999999997
20
76.850500000000011
0
LWPOLYLINE
5
108
100
AcDbEntity
8
0
100
AcDbPolyline
90
8
70
1
43
0.0
10
-41.125
20
2.5249999999999999
42
0.41421356237309404
10
-40.625
20
3.0249999999999999
10
-40.625
20
16.024999999999999
42
0.41421356237309503
10
-41.125
20
16.524999999999999
10
-54.125000000000007
20
16.524999999999999
42
0.41421356237309503
10
-54.625
20
16.024999999999999
10
-54.625
20
3.0249999999999999
42
0.41421356237309437
10
-54.125000000000007
20
2.5250000000000039
0
LWPOLYLINE
5
109
100
AcDbEntity
8
0
100
AcDbPolyline
90
8
70
1
43
0.0
10
-4.091867763087814
20
100.53750000000001
42
0.40249233873166645
10
-3.6120000000000241
20
101.03714023740389
10
-3.6120000000000001
20
115.03749999999999
42
0.41421356237310542
10
-4.1120000000000001
20
115.53750000000001
10
-10.112000000000002
20
115.53749999999999
42
0.41421356237311452
10
-10.611999999999991
20
115.03749999999999
10
-10.612000000000004
20
101.0337097381249
42
0.44263849702634028
10
-10.062696432335052
20
100.53750000000001
0
LWPOLYLINE
5
110
100
AcDbEntity
8
0
100
AcDbPolyline
90
8
70
1
43
0.0
10
-73.674999999999997
20
55.412500000000009
42
0.41421356237309503
10
-73.174999999999997
20
54.912500000000009
10
-60.174999999999997
20
54.912500000000009
42
0.41421356237309503
10
-59.675000000000004
20
55.412500000000009
10
-59.675000000000004
20
68.412499999999994
42
0.41421356237309503
10
-60.174999999999997
20
68.912499999999994
10
-73.174999999999997
20
68.912499999999994
42
0.41421356237309503
10
-73.674999999999997
20
68.412499999999994
0
LWPOLYLINE
5
111
100
AcDbEntity
8
0
100
AcDbPolyline
90
8
70
1
43
0.0
10
-41.125
20
83.487500000000011
42
0.41421356237311585
10
-40.625000000000007
20
83.987499999999997
10
-40.625
20
96.987500000000011
42
0.41421356237308982
10
-41.125
20
97.487500000000011
10
-54.125000000000007
20
97.487500000000011
42
0.41421356237309503
10
-54.625000000000014
20
96.987500000000011
10
-54.625
20
83.987499999999997
42
0.41421356237308982
10
-54.125000000000007
20
83.487499999999983
0
LWPOLYLINE
5
112
100
AcDbEntity
8
0
100
AcDbPolyline
90
8
70
1
43
0.0
10
-3.0249999999999999
20
83.487500000000011
42
0.41421356237311519
10
-2.5250000000000119
20
83.987499999999997
10
-2.5249999999999999
20
96.987500000000011
42
0.41421356237310675
10
-3.0250000000000021
20
97.487500000000011
10
-16.024999999999999
20
97.487500000000011
42
0.41421356237309631
10
-16.525000000000006
20
96.987500000000011
10
-16.524999999999999
20
83.987499999999997
42
0.41421356237310414
10
-16.024999999999999
20
83.487499999999983
0
LWPOLYLINE
5
113
100
AcDbEntity
8
0
100
AcDbPolyline
90
8
70
1
43
0.0
10
-22.074999999999999
20
2.5249999999999999
42
0.41421356237309537
10
-21.575000000000003
20
3.0249999999999999
10
-21.575000000000003
20
16.024999999999999
42
0.41421356237309631
10
-22.074999999999999
20
16.524999999999999
10
-35.075000000000003
20
16.524999999999999
42
0.41421356237309631
10
-35.575000000000003
20
16.024999999999999
10
-35.575000000000003
20
3.0249999999999999
42
0.41421356237309631
10
-35.075000000000003
20
2.524999999999995
0
LWPOLYLINE
5
114
100
AcDbEntity
8
0
100
AcDbPolyline
90
8
70
1
43
0.0
10
-22.074999999999999
20
64.4375
42
0.41421356237309764
10
-21.574999999999996
20
64.9375
10
-21.575000000000003
20
77.9375
42
0.41421356237309503
10
-22.074999999999999
20
78.4375
10
-35.075000000000003
20
78.4375
42
0.41421356237309503
10
-35.575000000000003
20
77.9375
10
-35.575000000000003
20
64.9375
42
0.41421356237308204
10
-35.075000000000003
20
64.4375
0
LWPOLYLINE
5
115
100
AcDbEntity
8
0
100
AcDbPolyline
90
8
70
1
43
0.0
10
-41.125
20
102.53749999999999
42
0.41421356237309503
10
-40.624999999999993
20
103.03750000000001
10
-40.625
20
116.03749999999999
42
0.41421356237310025
10
-41.125
20
116.53749999999999
10
-54.125000000000007
20
116.53750000000001
42
0.41421356237307422
10
-54.625000000000014
20
116.03749999999999
10
-54.625
20
103.03750000000001
42
0.41421356237308982
10
-54.125000000000007
20
102.53749999999999
0
LWPOLYLINE
5
116
100
AcDbEntity
8
0
100
AcDbPolyline
90
8
70
1
43
0.0
10
-72.674999999999997
20
108.95050000000001
42
0.41421356237308982
10
-72.174999999999997
20
108.45050000000001
10
-58.174999999999997
20
108.45050000000001
42
0.41421356237309503
10
-57.67499999999999
20
108.95050000000001
10
-57.674999999999997
20
114.95050000000001
42
0.41421356237310025
10
-58.174999999999997
20
115.45050000000001
10
-72.174999999999997
20
115.45050000000002
42
0.41421356237307422
10
-72.675000000000011
20
114.95050000000001
0
LWPOLYLINE
5
117
100
AcDbEntity
8
0
100
AcDbPolyline
90
8
70
1
43
0.0
10
-41.125
20
26.337499999999999
42
0.41421356237309503
10
-40.625
20
26.837499999999999
10
-40.625
20
39.837499999999999
42
0.41421356237311324
10
-41.125
20
40.337499999999991
10
-54.125000000000007
20
40.337500000000006
42
0.41421356237310542
10
-54.625
20
39.837499999999999
10
-54.625
20
26.837499999999999
42
0.41421356237309503
10
-54.125000000000007
20
26.337499999999999
0
LWPOLYLINE
5
118
100
AcDbEntity
8
0
100
AcDbPolyline
90
8
70
1
43
0.0
10
-27.855724446789768
20
100.53750000000001
42
0.3378232388466646
10
-27.487999999999985
20
101.01972889963776
10
-27.488000000000007
20
115.03749999999999
42
0.41421356237310802
10
-27.988000000000003
20
115.53750000000001
10
-33.988
20
115.53749999999999
42
0.41421356237311324
10
-34.487999999999992
20
115.03749999999999
10
-34.488
20
101.00759092894572
42
0.5091687486756068
10
-33.829984654814631
20
100.53750000000002
0
LWPOLYLINE
5
119
100
AcDbEntity
8
0
100
AcDbPolyline
90
8
70
1
43
0.0
10
-22.074999999999999
20
83.487500000000011
42
0.41421356237311324
10
-21.575000000000017
20
83.987499999999997
10
-21.575000000000003
20
96.987500000000011
42
0.41421356237310802
10
-22.074999999999999
20
97.487500000000011
10
-35.075000000000003
20
97.487500000000011
42
0.41421356237309243
10
-35.57500000000001
20
96.987500000000011
10
-35.575000000000003
20
83.987499999999997
42
0.41421356237309243
10
-35.075000000000003
20
83.487499999999983
0
LWPOLYLINE
5
120
100
AcDbEntity
8
0
100
AcDbPolyline
90
8
70
1
43
0.0
10
-60.174999999999997
20
2.5249999999999999
42
0.41421356237309664
10
-59.675000000000004
20
3.0249999999999999
10
-59.675000000000004
20
16.024999999999999
42
0.41421356237309764
10
-60.174999999999997
20
16.524999999999999
10
-73.174999999999997
20
16.524999999999999
42
0.41421356237309503
10
-73.674999999999997
20
16.024999999999999
10
-73.674999999999997
20
3.0249999999999999
42
0.41421356237309437
10
-73.174999999999997
20
2.5250000000000039
0
LWPOLYLINE
5
121
100
AcDbEntity
8
0
100
AcDbPolyline
90
8
70
1
43
0.0
10
-41.125
20
45.387500000000003
42
0.41421356237309503
10
-40.625
20
45.887500000000003
10
-40.625
20
58.88750000000001
42
0.41421356237309503
10
-41.125
20
59.387500000000003
10
-54.125000000000007
20
59.387500000000003
42
0.41421356237309503
10
-54.625
20
58.88750000000001
10
-54.625
20
45.887500000000003
42
0.41421356237309503
10
-54.125000000000007
20
45.387500000000003
0
LWPOLYLINE
5
122
100
AcDbEntity
8
0
100
AcDbPolyline
90
8
70
1
43
0.0
10
-22.074999999999999
20
45.387500000000003
42
0.41421356237309503
10
-21.575000000000003
20
45.887500000000003
10
-21.575000000000003
20
58.88750000000001
42
0.41421356237309503
10
-22.074999999999999
20
59.387500000000003
10
-35.075000000000003
20
59.387500000000003
42
0.41421356237309503
10
-35.575000000000003
20
58.88750000000001
10
-35.575000000000003
20
45.887500000000003
42
0.41421356237308721
10
-35.075000000000003
20
45.387500000000003
0
LWPOLYLINE
5
123
100
AcDbEntity
8
0
100
AcDbPolyline
90
8
70
1
43
0.0
10
-3.0249999999999999
20
45.387500000000003
42
0.41421356237309437
10
-2.525000000000003
20
45.887500000000003
10
-2.5249999999999999
20
58.88750000000001
42
0.41421356237309537
10
-3.0250000000000021
20
59.387500000000003
10
-16.024999999999999
20
59.387500000000003
42
0.41421356237309503
10
-16.524999999999999
20
58.88750000000001
10
-16.524999999999999
20
45.887500000000003
42
0.41421356237309503
10
-16.024999999999999
20
45.387500000000003
0
LWPOLYLINE
5
124
100
AcDbEntity
8
0
100
AcDbPolyline
90
8
70
1
43
0.0
10
-72.674999999999997
20
46.974499999999999
42
0.41421356237309503
10
-72.174999999999997
20
46.474499999999999
10
-58.174999999999997
20
46.474499999999999
42
0.41421356237309503
10
-57.674999999999997
20
46.974499999999999
10
-57.674999999999997
20
52.974500000000006
42
0.41421356237309503
10
-58.174999999999997
20
53.474500000000006
10
-72.174999999999997
20
53.474500000000006
42
0.41421356237309503
10
-72.674999999999997
20
52.974500000000006
0
LWPOLYLINE
5
125
100
AcDbEntity
8
0
100
AcDbPolyline
90
8
70
1
43
0.0
10
-3.0249999999999999
20
64.4375
42
0.41421356237309698
10
-2.5249999999999986
20
64.9375
10
-2.5249999999999999
20
77.9375
42
0.41421356237309537
10
-3.0250000000000021
20
78.4375
10
-16.024999999999999
20
78.4375
42
0.41421356237309503
10
-16.524999999999999
20
77.9375
10
-16.524999999999999
20
64.9375
42
0.41421356237309764
10
-16.024999999999999
20
64.4375
0
LWPOLYLINE
5
126
100
AcDbEntity
8
0
100
AcDbPolyline
90
8
70
1
43
0.0
10
-60.174999999999997
20
26.337499999999999
42
0.41421356237309764
10
-59.675000000000011
20
26.837499999999999
10
-59.675000000000004
20
39.837499999999999
42
0.41421356237311585
10
-60.174999999999997
20
40.337499999999991
10
-73.174999999999997
20
40.337500000000006
42
0.41421356237310542
10
-73.674999999999997
20
39.837499999999999
10
-73.674999999999997
20
26.837499999999999
42
0.41421356237309503
10
-73.174999999999997
20
26.337499999999999
0
LWPOLYLINE
5
127
100
AcDbEntity
8
0
100
AcDbPolyline
90
8
70
1
43
0.0
10
-12.550000000000001
20
102.53749999999999
42
0.41421356237309503
10
-12.049999999999994
20
103.03750000000001
10
-12.050000000000001
20
116.03749999999999
42
0.41421356237307422
10
-12.549999999999999
20
116.53750000000001
10
-25.550000000000001
20
116.53750000000001
42
0.41421356237307422
10
-26.050000000000008
20
116.03749999999999
10
-26.050000000000004
20
103.03750000000001
42
0.41421356237310802
10
-25.550000000000001
20
102.53749999999999
0
LWPOLYLINE
5
128
100
AcDbEntity
8
0
100
AcDbPolyline
90
8
70
1
43
0.0
10
-3.0249999999999999
20
26.337499999999999
42
0.4142135623730957
10
-2.5250000000000004
20
26.837499999999999
10
-2.5249999999999999
20
39.837499999999999
42
0.41421356237308138
10
-3.0250000000000021
20
40.337500000000006
10
-16.024999999999999
20
40.337500000000006
42
0.41421356237310025
10
-16.525000000000002
20
39.837499999999999
10
-16.524999999999999
20
26.837499999999999
42
0.41421356237309631
10
-16.024999999999999
20
26.337499999999999
0
LWPOLYLINE
5
129
100
AcDbEntity
8
0
100
AcDbPolyline
90
8
70
1
43
0.0
10
-3.0249999999999999
20
2.5249999999999999
42
0.41421356237309437
10
-2.5249999999999999
20
3.0249999999999999
10
-2.5249999999999999
20
16.024999999999999
42
0.41421356237309598
10
-3.0250000000000021
20
16.524999999999999
10
-16.024999999999999
20
16.524999999999999
42
0.41421356237309764
10
-16.524999999999999
20
16.024999999999999
10
-16.524999999999999
20
3.0249999999999999
42
0.4142135623730957
10
-16.024999999999999
20
2.5250000000000039
0
LWPOLYLINE
5
130
100
AcDbEntity
8
0
100
AcDbPolyline
90
8
70
1
43
0.0
10
-76.200000000000003
20
3.0000000000000075
42
0.41421356237309614
10
-73.200000000000003
20
-1.6653345369377348e-15
10
-3.0000000000000071
20
0
42
0.41421356237309631
10
-2.7755575615628914e-15
20
3.0000000000000067
10
0
20
116.0625
42
0.41421356237309365
10
-3.0000000000000004
20
119.0625
10
-73.200000000000017
20
119.0625
42
0.4142135623730942
10
-76.200000000000017
20
116.0625
0
ENDSEC
0
SECTION
2
OBJECTS
0
DICTIONARY
5
C
100
AcDbDictionary
3
ACAD_GROUP
350
D
3
ACAD_MLINESTYLE
350
17
0
DICTIONARY
5
D
100
AcDbDictionary
0
DICTIONARY
5
1A
330
C
100
AcDbDictionary
0
DICTIONARY
5
17
100
AcDbDictionary
0
ENDSEC
0
EOF
